<svg width="24" height="20" viewBox="0 0 24 20" fill="none" xmlns="http://www.w3.org/2000/svg">
<path d="M20.8752 6.6665H20.0418V0.83316C20.0417 0.372903 19.6685 -9.76378e-05 19.2082 1.91716e-08C19.1021 1.91716e-08 18.997 0.0203126 18.8984 0.0598148L6.58921 4.99984H2.50002C1.1193 4.99984 0 6.11914 0 7.49986V10.8332C0 12.214 1.1193 13.3333 2.50002 13.3333H2.54167V19.1666C2.54167 19.6269 2.91477 20 3.37502 20H6.7084C7.16866 20 7.54175 19.6269 7.54175 19.1666V13.7149L18.8985 18.2733C18.997 18.3133 19.1023 18.3337 19.2085 18.3333C19.6688 18.3333 20.0419 17.9602 20.0419 17.5V11.6665H20.8752C22.256 11.6665 23.3753 10.5472 23.3753 9.16652C23.3753 7.7858 22.2559 6.6665 20.8752 6.6665ZM5.87504 18.3333H4.20838V13.3333H5.87504V18.3333ZM5.91669 11.6665H2.50002C2.03976 11.6665 1.66666 11.2934 1.66666 10.8332V7.49981C1.66666 7.03955 2.03976 6.66646 2.50002 6.66646H5.91669V11.6665ZM18.3751 16.2674L7.58341 11.9341V6.39653L18.3751 2.06564V16.2674ZM20.8752 9.99988H20.0418V8.33322H20.8752C21.3354 8.33322 21.7085 8.70631 21.7085 9.16657C21.7085 9.62683 21.3354 9.99988 20.8752 9.99988Z" fill="#29CA7D"/>
</svg>
