<svg width="18" height="22" viewBox="0 0 18 22" fill="none" xmlns="http://www.w3.org/2000/svg">
<path d="M17.5826 14.9972C17.505 14.9034 17.4288 14.8097 17.3541 14.7192C16.326 13.4719 15.704 12.7191 15.704 9.18798C15.704 7.35985 15.268 5.85985 14.4086 4.73485C13.7749 3.90376 12.9183 3.27329 11.7892 2.80735C11.7747 2.79925 11.7617 2.78861 11.7509 2.77595C11.3448 1.41188 10.2335 0.498291 8.98019 0.498291C7.72685 0.498291 6.61603 1.41188 6.20993 2.77454C6.19909 2.78674 6.1863 2.79704 6.17208 2.80501C3.53734 3.89298 2.25689 5.98032 2.25689 9.18657C2.25689 12.7191 1.63582 13.4719 0.606786 14.7178C0.532015 14.8083 0.455843 14.9002 0.378268 14.9958C0.177882 15.2382 0.0509212 15.5331 0.0124106 15.8456C-0.0261 16.1581 0.0254517 16.4752 0.160965 16.7592C0.4493 17.3686 1.06382 17.7469 1.76527 17.7469H16.2003C16.8984 17.7469 17.5087 17.3691 17.798 16.7625C17.9341 16.4784 17.9862 16.1611 17.948 15.8482C17.9098 15.5353 17.783 15.24 17.5826 14.9972Z" fill="#454545"/>
<path d="M8.98021 21.4983C9.6555 21.4977 10.3181 21.3139 10.8976 20.9662C11.4771 20.6185 11.9521 20.12 12.272 19.5234C12.2871 19.4949 12.2945 19.4628 12.2936 19.4305C12.2927 19.3982 12.2835 19.3667 12.2668 19.339C12.2502 19.3113 12.2267 19.2884 12.1986 19.2725C12.1705 19.2566 12.1388 19.2483 12.1066 19.2483H5.85479C5.82251 19.2482 5.79075 19.2565 5.7626 19.2723C5.73446 19.2882 5.71088 19.3111 5.69418 19.3388C5.67747 19.3665 5.66821 19.398 5.66728 19.4304C5.66635 19.4628 5.6738 19.4948 5.68889 19.5234C6.00878 20.1199 6.48363 20.6184 7.06309 20.9661C7.64254 21.3138 8.305 21.4977 8.98021 21.4983Z" fill="#454545"/>
</svg>
