<svg width="125" height="40" viewBox="0 0 125 40" fill="none" xmlns="http://www.w3.org/2000/svg">
<path d="M24.171 24.866L23.8439 25.567C21.3902 30.1306 17.6005 32.3849 12.4749 32.3299C9.09422 32.3024 6.17701 31.1065 3.72327 28.7423C1.26954 26.378 0.0290418 23.5052 0.00177807 20.1237C-0.0527493 16.7148 1.14685 13.8007 3.60059 11.3814C6.08158 8.93471 9.03969 7.68385 12.4749 7.62887C14.9287 7.60137 17.2188 8.24742 19.3454 9.56701C21.3629 10.8316 22.8079 12.4261 23.6803 14.3505L24.1302 15.3814H20.6131C18.8683 12.3574 16.1964 10.8041 12.5976 10.7216C10.1984 10.6667 8.04457 11.5464 6.13611 13.3608C4.14586 15.2302 3.15074 17.4433 3.15074 20C3.15074 22.5567 4.0777 24.756 5.93163 26.5979C7.78556 28.4124 9.98029 29.3058 12.5158 29.2784C16.1419 29.2234 18.8546 27.7526 20.654 24.866H24.171Z" fill="#29CA7D"/>
<path d="M34.9617 10.9691C33.5167 11.0241 32.3444 11.4227 31.4447 12.1649C30.545 12.9072 29.9316 13.5533 29.6044 14.1031C29.0864 15.0103 28.8274 16.2199 28.8274 17.732V31.7938H25.5557V8.28866H28.4593V11.6289C29.1137 10.3643 30.0815 9.38832 31.3629 8.70103C32.5352 8.06873 33.7349 7.78007 34.9617 7.83505V10.9691Z" fill="#29CA7D"/>
<path d="M58.2364 21.1134H37.2979C37.5433 23.4777 38.5384 25.4296 40.2833 26.9691C42.0281 28.5086 44.0865 29.2646 46.4585 29.2371C50.1391 29.1821 52.77 27.4639 54.3513 24.0825H57.6639C56.7914 26.6117 55.3192 28.6186 53.2471 30.1031C51.1751 31.5876 48.8713 32.3436 46.3358 32.3711C43.1459 32.4261 40.3241 31.2577 37.8704 28.866C35.4167 26.4467 34.1626 23.5739 34.108 20.2474C34.0262 16.7285 35.2531 13.7045 37.7886 11.1753C40.3514 8.61856 43.364 7.43642 46.8265 7.62887C49.9346 7.8213 52.6337 9.1134 54.9239 11.5052C57.1322 13.8694 58.2364 16.5086 58.2364 19.4227V21.1134ZM55.1692 18.2268C54.733 16.0275 53.7106 14.2543 52.1021 12.9072C50.4935 11.5326 48.5714 10.8316 46.3358 10.8041C44.1002 10.7766 42.1372 11.4502 40.4468 12.8247C38.7837 14.1993 37.7341 16 37.2979 18.2268H55.1692Z" fill="#29CA7D"/>
<path d="M81.5961 31.7938H78.4471V18.0619C78.4471 16.0825 77.7246 14.378 76.2796 12.9485C74.8619 11.5189 73.1988 10.8041 71.2904 10.8041C69.3547 10.8041 67.6643 11.5189 66.2193 12.9485C64.8016 14.378 64.0928 16.0825 64.0928 18.0619V31.7938H60.9438V18.3918C60.9438 15.3402 61.9253 12.811 63.8883 10.8041C65.8513 8.76976 68.3186 7.75258 71.2904 7.75258C74.2349 7.75258 76.6886 8.76976 78.6516 10.8041C80.6146 12.811 81.5961 15.3402 81.5961 18.3918V31.7938Z" fill="#29CA7D"/>
<path d="M87.9761 31.7938H84.868V0H87.9761V31.7938Z" fill="#29CA7D"/>
<path d="M112.5 8.28866L99.2907 40H95.9373L99.4543 31.0515L90.5391 8.28866H93.9334L101.376 26.9278L109.228 8.28866H112.5Z" fill="#29CA7D"/>
<circle cx="120" cy="29" r="5" fill="#29CA7D"/>
</svg>
