<svg width="26" height="26" viewBox="0 0 26 26" fill="none" xmlns="http://www.w3.org/2000/svg">
<path d="M19.5 11.9166V14.0833H23.8333V11.9166H19.5ZM17.3333 19.0775C18.3733 19.8466 19.7275 20.865 20.8 21.6666C21.2333 21.0925 21.6667 20.5075 22.1 19.9333C21.0275 19.1316 19.6733 18.1133 18.6333 17.3333C18.2 17.9183 17.7667 18.5033 17.3333 19.0775ZM22.1 6.06665C21.6667 5.49248 21.2333 4.90748 20.8 4.33331C19.7275 5.13498 18.3733 6.15331 17.3333 6.93331C17.7667 7.50748 18.2 8.09248 18.6333 8.66665C19.6733 7.88665 21.0275 6.87915 22.1 6.06665ZM4.33334 9.74998C3.14167 9.74998 2.16667 10.725 2.16667 11.9166V14.0833C2.16667 15.275 3.14167 16.25 4.33334 16.25H5.41667V20.5833H7.58334V16.25H8.66667L14.0833 19.5V6.49998L8.66667 9.74998H4.33334ZM9.78251 11.6025L11.9167 10.3241V15.6758L9.78251 14.3975L9.26251 14.0833H4.33334V11.9166H9.26251L9.78251 11.6025ZM16.7917 13C16.7917 11.5591 16.1633 10.2591 15.1667 9.37081V16.6183C16.1633 15.7408 16.7917 14.4408 16.7917 13Z" fill="white"/>
</svg>
