<svg width="24" height="24" viewBox="0 0 24 24" fill="none" xmlns="http://www.w3.org/2000/svg">
<rect width="24" height="24" rx="5" fill="#00B071"/>
<path d="M6.80394 12.8979L6.19377 12.3033C5.93541 12.0516 5.93541 11.6445 6.19377 11.3954L11.5341 6.18882C11.7925 5.93706 12.2103 5.93706 12.4659 6.18882L17.8062 11.3927C18.0646 11.6445 18.0646 12.0516 17.8062 12.3006L17.1961 12.8952C16.935 13.1496 16.5089 13.1443 16.2533 12.8845L13.1008 9.65986V17.3572C13.1008 17.7134 12.8067 18 12.4411 18H11.5616C11.1961 18 10.902 17.7134 10.902 17.3572V9.65986L7.74668 12.8872C7.49107 13.1496 7.06505 13.155 6.80394 12.8979Z" fill="white"/>
</svg>
