<svg width="16" height="16" viewBox="0 0 16 16" fill="none" xmlns="http://www.w3.org/2000/svg">
<path fill-rule="evenodd" clip-rule="evenodd" d="M9.86041 3.1143C10.0141 2.95516 10.198 2.82822 10.4013 2.7409C10.6046 2.65357 10.8232 2.6076 11.0444 2.60568C11.2657 2.60376 11.4851 2.64592 11.6899 2.7297C11.8947 2.81348 12.0807 2.9372 12.2371 3.09365C12.3936 3.2501 12.5173 3.43614 12.6011 3.64092C12.6849 3.84569 12.727 4.0651 12.7251 4.28635C12.7232 4.50759 12.6772 4.72624 12.5899 4.92952C12.5026 5.13281 12.3756 5.31668 12.2165 5.47038L9.71711 7.96976C9.40464 8.28213 8.9809 8.45761 8.53907 8.45761C8.09724 8.45761 7.6735 8.28213 7.36104 7.96976C7.20391 7.818 6.99346 7.73402 6.77501 7.73592C6.55657 7.73782 6.34761 7.82544 6.19315 7.97991C6.03868 8.13437 5.95106 8.34333 5.94916 8.56177C5.94726 8.78022 6.03124 8.99067 6.183 9.1478C6.80793 9.77254 7.65541 10.1235 8.53907 10.1235C9.42273 10.1235 10.2702 9.77254 10.8952 9.1478L13.3945 6.64842C14.0016 6.0199 14.3375 5.17811 14.3299 4.30434C14.3223 3.43057 13.9718 2.59473 13.3539 1.97686C12.7361 1.35899 11.9002 1.00851 11.0265 1.00092C10.1527 0.993327 9.31089 1.32922 8.68237 1.93627L7.43268 3.18595C7.35311 3.26281 7.28964 3.35474 7.24598 3.45638C7.20232 3.55803 7.17933 3.66735 7.17837 3.77797C7.17741 3.88859 7.19849 3.9983 7.24038 4.10069C7.28227 4.20307 7.34413 4.29609 7.42236 4.37432C7.50058 4.45254 7.5936 4.51441 7.69599 4.5563C7.79838 4.59819 7.90808 4.61927 8.01871 4.6183C8.12933 4.61734 8.23865 4.59436 8.34029 4.5507C8.44194 4.50703 8.53387 4.44356 8.61072 4.36399L9.86041 3.1143ZM5.69479 7.27993C6.00725 6.96756 6.43099 6.79207 6.87282 6.79207C7.31465 6.79207 7.73839 6.96756 8.05086 7.27993C8.12772 7.3595 8.21965 7.42297 8.32129 7.46663C8.42294 7.5103 8.53226 7.53328 8.64288 7.53424C8.7535 7.5352 8.86321 7.51412 8.9656 7.47223C9.06798 7.43034 9.161 7.36848 9.23923 7.29026C9.31745 7.21203 9.37931 7.11901 9.4212 7.01662C9.46309 6.91424 9.48417 6.80453 9.48321 6.69391C9.48225 6.58329 9.45927 6.47396 9.41561 6.37232C9.37194 6.27067 9.30847 6.17874 9.2289 6.10189C8.60397 5.47714 7.75648 5.12618 6.87282 5.12618C5.98917 5.12618 5.14168 5.47714 4.51675 6.10189L2.01737 8.60127C1.69909 8.90868 1.44521 9.2764 1.27056 9.68298C1.0959 10.0896 1.00397 10.5268 1.00013 10.9693C0.996281 11.4118 1.0806 11.8506 1.24816 12.2602C1.41572 12.6697 1.66317 13.0418 1.97607 13.3547C2.28896 13.6676 2.66104 13.9151 3.0706 14.0826C3.48015 14.2502 3.91897 14.3345 4.36146 14.3307C4.80394 14.3268 5.24123 14.2349 5.64781 14.0602C6.05439 13.8856 6.42211 13.6317 6.72953 13.3134L7.97921 12.0637C8.05879 11.9869 8.12225 11.8949 8.16592 11.7933C8.20958 11.6917 8.23256 11.5823 8.23353 11.4717C8.23449 11.3611 8.21341 11.2514 8.17152 11.149C8.12963 11.0466 8.06776 10.9536 7.98954 10.8754C7.91132 10.7971 7.8183 10.7353 7.71591 10.6934C7.61352 10.6515 7.50381 10.6304 7.39319 10.6314C7.28257 10.6323 7.17325 10.6553 7.0716 10.699C6.96996 10.7427 6.87803 10.8061 6.80118 10.8857L5.55149 12.1354C5.39778 12.2945 5.21392 12.4215 5.01063 12.5088C4.80734 12.5961 4.5887 12.6421 4.36745 12.644C4.14621 12.6459 3.9268 12.6038 3.72202 12.52C3.51725 12.4362 3.33121 12.3125 3.17476 12.156C3.01831 11.9996 2.89459 11.8135 2.8108 11.6088C2.72702 11.404 2.68487 11.1846 2.68679 10.9633C2.68871 10.7421 2.73468 10.5235 2.822 10.3202C2.90933 10.1169 3.03627 9.93301 3.19541 9.7793L5.69479 7.27993Z" fill="#4F4F4F"/>
</svg>
