<svg width="14" height="17" viewBox="0 0 14 17" fill="none" xmlns="http://www.w3.org/2000/svg">
<path d="M1.93372 3.57961C0.785085 5.24178 0.519571 7.34653 1.22281 9.20652C1.41165 9.71637 1.71142 10.2107 2.11087 10.6731C2.11091 10.6731 2.11095 10.6732 2.11099 10.6732L6.51634 15.8478C6.62548 15.9761 6.78538 16.05 6.95372 16.05C7.12205 16.05 7.28196 15.9761 7.39109 15.8478L11.7952 10.6746C11.7953 10.6746 11.7953 10.6746 11.7953 10.6745C12.1965 10.2095 12.4959 9.7157 12.6832 9.20984C13.3879 7.34652 13.1223 5.24178 11.9737 3.57961C10.8192 1.90874 8.98898 0.95 6.95372 0.95C4.91846 0.95 3.08821 1.90874 1.93372 3.57961ZM11.6075 8.8073L11.6074 8.80764C11.4673 9.18614 11.2382 9.56173 10.9258 9.92418C10.9246 9.9254 10.9228 9.92735 10.9209 9.92979L6.95372 14.5895L2.98304 9.92563L2.98282 9.92538C2.66997 9.56286 2.44049 9.18684 2.29884 8.80415L2.29872 8.80382C1.72791 7.29416 1.94436 5.58531 2.87876 4.23297L2.8386 4.20523L2.87876 4.23297C3.81589 2.87661 5.30084 2.09895 6.95372 2.09895C8.60656 2.09895 10.0913 2.87657 11.0285 4.23297L11.0696 4.20455L11.0285 4.23298C11.9631 5.58529 12.1797 7.29415 11.6075 8.8073Z" fill="#4F4F4F" stroke="#4F4F4F" stroke-width="0.1"/>
<path d="M6.95367 4.06188C5.30665 4.06188 3.9666 5.40174 3.9666 7.04895C3.9666 8.69615 5.30647 10.036 6.95367 10.036C8.60088 10.036 9.94074 8.69615 9.94074 7.04895C9.94074 5.40192 8.6007 4.06188 6.95367 4.06188ZM6.95367 8.88704C5.94019 8.88704 5.11555 8.0624 5.11555 7.04892C5.11555 6.03544 5.94019 5.21079 6.95367 5.21079C7.96715 5.21079 8.7918 6.03544 8.7918 7.04892C8.7918 8.0624 7.96715 8.88704 6.95367 8.88704Z" fill="#4F4F4F" stroke="#4F4F4F" stroke-width="0.1"/>
</svg>
