<svg width="16" height="16" viewBox="0 0 16 16" fill="none" xmlns="http://www.w3.org/2000/svg">
<path d="M2.83512 6.66695C2.72322 7.10255 2.66678 7.55054 2.66712 8.00028C2.66712 8.46028 2.72579 8.90695 2.83512 9.33362H4.73379C4.64391 8.447 4.64391 7.55357 4.73379 6.66695H2.83512ZM3.38045 5.33362H4.94445C5.12179 4.52228 5.37779 3.79562 5.69179 3.19095C4.72391 3.65723 3.9186 4.40377 3.38045 5.33362ZM13.1658 6.66695H11.2671C11.357 7.55357 11.357 8.447 11.2671 9.33362H13.1658C13.3902 8.4589 13.3902 7.54167 13.1658 6.66695ZM12.6205 5.33362C12.0823 4.40377 11.277 3.65723 10.3091 3.19095C10.6238 3.79562 10.8791 4.52228 11.0565 5.33362H12.6205ZM6.07512 6.66695C6.02517 7.10964 6.00024 7.55479 6.00045 8.00028C6.00045 8.45695 6.02579 8.90362 6.07512 9.33362H9.92579C10.0262 8.44756 10.0262 7.553 9.92579 6.66695H6.07512ZM6.31379 5.33362H9.68712C9.56579 4.83248 9.39078 4.34589 9.16512 3.88228C8.74645 3.04562 8.29845 2.66695 8.00045 2.66695C7.70179 2.66695 7.25445 3.04562 6.83579 3.88228C6.62579 4.30362 6.44912 4.79362 6.31379 5.33362ZM3.38045 10.667C3.9186 11.5968 4.72391 12.3433 5.69179 12.8096C5.37712 12.205 5.12179 11.4783 4.94445 10.667H3.38045ZM12.6205 10.667H11.0565C10.8791 11.4783 10.6231 12.205 10.3091 12.8096C11.277 12.3433 12.0823 11.5968 12.6205 10.667ZM6.31379 10.667C6.44912 11.207 6.62579 11.697 6.83579 12.1183C7.25445 12.955 7.70245 13.3336 8.00045 13.3336C8.29912 13.3336 8.74645 12.955 9.16512 12.1183C9.37512 11.697 9.55179 11.207 9.68712 10.667H6.31379ZM8.00045 14.667C4.31845 14.667 1.33379 11.6823 1.33379 8.00028C1.33379 4.31828 4.31845 1.33362 8.00045 1.33362C11.6825 1.33362 14.6671 4.31828 14.6671 8.00028C14.6671 11.6823 11.6825 14.667 8.00045 14.667Z" fill="#4F4F4F"/>
</svg>
